<svg width="66" height="68" viewBox="0 0 66 68" fill="none" xmlns="http://www.w3.org/2000/svg">
<path d="M33 14.1667L32.5695 13.7489L33 13.3053L33.4305 13.7489L33 14.1667ZM33.6 39.6667C33.6 39.9981 33.3314 40.2667 33 40.2667C32.6686 40.2667 32.4 39.9981 32.4 39.6667L33.6 39.6667ZM18.8195 27.9155L32.5695 13.7489L33.4305 14.5846L19.6805 28.7513L18.8195 27.9155ZM33.4305 13.7489L47.1805 27.9155L46.3195 28.7513L32.5695 14.5846L33.4305 13.7489ZM33.6 14.1667L33.6 39.6667L32.4 39.6667L32.4 14.1667L33.6 14.1667Z" fill="#222222"/>
<path d="M13.75 45.3333L13.75 48.1666C13.75 51.2962 16.2124 53.8333 19.25 53.8333L46.75 53.8333C49.7876 53.8333 52.25 51.2962 52.25 48.1666V45.3333" stroke="#222222" stroke-width="1.2"/>
<rect x="13.75" y="42.5" width="38.5" height="11.3333" rx="2" fill="#D1E8E8" fill-opacity="0.4"/>
</svg>
